{
  "accessors": [
    {
      "bufferView": 2,
      "componentType": 5126,
      "count": 20186,
      "max": [
        1.2191499471664429,
        1.4273179769515991,
        2.3711769580841064
      ],
      "min": [
        -1.506803035736084,
        -1.128546953201294,
        -1.033642053604126
      ],
      "type": "VEC3"
    },
    {
      "bufferView": 2,
      "byteOffset": 242232,
      "componentType": 5126,
      "count": 20186,
      "max": [
        0.9999915361404419,
        0.9997307658195496,
        0.9998633861541748
      ],
      "min": [
        -0.9999891519546509,
        -0.999922513961792,
        -0.9998130202293396
      ],
      "type": "VEC3"
    },
    {
      "bufferView": 1,
      "componentType": 5126,
      "count": 20186,
      "max": [
        0.9960200190544128,
        0.9982029795646667
      ],
      "min": [
        0.008944000117480755,
        0.005578999873250723
      ],
      "type": "VEC2"
    },
    {
      "bufferView": 0,
      "componentType": 5125,
      "count": 92970,
      "type": "SCALAR"
    }
  ],
  "asset": {
    "extras": {
      "author": "teryrocks32 (https://sketchfab.com/mohammed_el-tairy)",
      "license": "CC-BY-4.0 (http://creativecommons.org/licenses/by/4.0/)",
      "source": "https://sketchfab.com/3d-models/ui-ux-typing-machine-5d717a7a9f0f48e3bfbfcfb465427b55",
      "title": "UI UX typing machine"
    },
    "generator": "Sketchfab-15.37.0",
    "version": "2.0"
  },
  "bufferViews": [
    {
      "buffer": 0,
      "byteLength": 371880,
      "name": "floatBufferViews",
      "target": 34963
    },
    {
      "buffer": 0,
      "byteLength": 161488,
      "byteOffset": 371880,
      "byteStride": 8,
      "name": "floatBufferViews",
      "target": 34962
    },
    {
      "buffer": 0,
      "byteLength": 484464,
      "byteOffset": 533368,
      "byteStride": 12,
      "name": "floatBufferViews",
      "target": 34962
    }
  ],
  "buffers": [
    {
      "byteLength": 1017832,
      "uri": "scene.bin"
    }
  ],
  "images": [
    {
      "uri": "textures/White_baseColor.png"
    },
    {
      "uri": "textures/White_metallicRoughness.png"
    }
  ],
  "materials": [
    {
      "doubleSided": true,
      "name": "White",
      "pbrMetallicRoughness": {
        "baseColorTexture": {
          "index": 0
        },
        "metallicRoughnessTexture": {
          "index": 1
        }
      }
    }
  ],
  "meshes": [
    {
      "name": "Object_0",
      "primitives": [
        {
          "attributes": {
            "NORMAL": 1,
            "POSITION": 0,
            "TEXCOORD_0": 2
          },
          "indices": 3,
          "material": 0,
          "mode": 4
        }
      ]
    }
  ],
  "nodes": [
    {
      "children": [
        1
      ],
      "matrix": [
        1.0,
        0.0,
        0.0,
        0.0,
        0.0,
        2.220446049250313e-16,
        -1.0,
        0.0,
        0.0,
        1.0,
        2.220446049250313e-16,
        0.0,
        0.0,
        0.0,
        0.0,
        1.0
      ],
      "name": "Sketchfab_model"
    },
    {
      "children": [
        2
      ],
      "name": "Tet.obj.cleaner.materialmerger.gles"
    },
    {
      "mesh": 0,
      "name": "Object_2"
    }
  ],
  "samplers": [
    {
      "magFilter": 9729,
      "minFilter": 9987,
      "wrapS": 10497,
      "wrapT": 10497
    }
  ],
  "scene": 0,
  "scenes": [
    {
      "name": "Sketchfab_Scene",
      "nodes": [
        0
      ]
    }
  ],
  "textures": [
    {
      "sampler": 0,
      "source": 0
    },
    {
      "sampler": 0,
      "source": 1
    }
  ]
}
