{
  "accessors": [
    {
      "bufferView": 1,
      "componentType": 5126,
      "count": 65532,
      "max": [
        44.96101760864258,
        29.616043090820313,
        3.7415406703948975
      ],
      "min": [
        -79.81657409667969,
        -15.006645202636719,
        -6.455199241638184
      ],
      "type": "VEC3"
    },
    {
      "bufferView": 1,
      "byteOffset": 786384,
      "componentType": 5126,
      "count": 65532,
      "max": [
        1.0,
        1.0,
        1.0
      ],
      "min": [
        -1.0,
        -1.0,
        -1.0
      ],
      "type": "VEC3"
    },
    {
      "bufferView": 0,
      "componentType": 5125,
      "count": 261885,
      "type": "SCALAR"
    },
    {
      "bufferView": 1,
      "byteOffset": 1572768,
      "componentType": 5126,
      "count": 19992,
      "max": [
        18.735111236572266,
        17.430795669555664,
        2.5789999961853027
      ],
      "min": [
        -45.68113708496094,
        -10.332883834838867,
        -2.1908044815063477
      ],
      "type": "VEC3"
    },
    {
      "bufferView": 1,
      "byteOffset": 1812672,
      "componentType": 5126,
      "count": 19992,
      "max": [
        0.9999960660934448,
        1.0,
        1.0
      ],
      "min": [
        -0.9999960660934448,
        -1.0,
        -1.0
      ],
      "type": "VEC3"
    },
    {
      "bufferView": 0,
      "byteOffset": 1047540,
      "componentType": 5125,
      "count": 72729,
      "type": "SCALAR"
    }
  ],
  "asset": {
    "extras": {
      "author": "Siarheika (https://sketchfab.com/siarheika)",
      "license": "CC-BY-4.0 (http://creativecommons.org/licenses/by/4.0/)",
      "source": "https://sketchfab.com/3d-models/gears-bowtie-594f8f2772634a64a1e3bb072d14fae5",
      "title": "Gears Bowtie"
    },
    "generator": "Sketchfab-12.68.0",
    "version": "2.0"
  },
  "bufferViews": [
    {
      "buffer": 0,
      "byteLength": 1338456,
      "name": "floatBufferViews",
      "target": 34963
    },
    {
      "buffer": 0,
      "byteLength": 2052576,
      "byteOffset": 1338456,
      "byteStride": 12,
      "name": "floatBufferViews",
      "target": 34962
    }
  ],
  "buffers": [
    {
      "byteLength": 3391032,
      "uri": "scene.bin"
    }
  ],
  "materials": [
    {
      "doubleSided": true,
      "name": "Scene_-_Root",
      "pbrMetallicRoughness": {
        "baseColorFactor": [
          0.26651984652910465,
          0.26651984652910465,
          0.26651984652910465,
          1.0
        ],
        "metallicFactor": 0.0,
        "roughnessFactor": 0.6
      }
    }
  ],
  "meshes": [
    {
      "name": "Object_0",
      "primitives": [
        {
          "attributes": {
            "NORMAL": 1,
            "POSITION": 0
          },
          "indices": 2,
          "material": 0,
          "mode": 4
        }
      ]
    },
    {
      "name": "Object_1",
      "primitives": [
        {
          "attributes": {
            "NORMAL": 4,
            "POSITION": 3
          },
          "indices": 5,
          "material": 0,
          "mode": 4
        }
      ]
    }
  ],
  "nodes": [
    {
      "children": [
        1
      ],
      "matrix": [
        0.026196962222456932,
        2.9027209099109696e-18,
        -4.210884100205935e-18,
        0.0,
        -2.908248916462213e-18,
        0.026196940362008148,
        -3.4407349125801414e-05,
        0.0,
        4.207068166933044e-18,
        3.4407349125801414e-05,
        0.026196940362008148,
        0.0,
        0.0,
        -8.659783363342283,
        -5.938331604003908,
        1.0
      ],
      "name": "Sketchfab_model"
    },
    {
      "children": [
        2,
        3
      ],
      "name": "gears_01.stl.cleaner.materialmerger.gles"
    },
    {
      "mesh": 0,
      "name": "Object_2"
    },
    {
      "mesh": 1,
      "name": "Object_3"
    }
  ],
  "scene": 0,
  "scenes": [
    {
      "name": "Sketchfab_Scene",
      "nodes": [
        0
      ]
    }
  ]
}
