<svg xmlns="http://www.w3.org/2000/svg" id="Layer_1" data-name="Layer 1" viewBox="0 0 24 24">
  <path d="m24,12c0,.276-.224.5-.5.5H.5c-.276,0-.5-.224-.5-.5s.224-.5.5-.5h23c.276,0,.5.224.5.5Zm-7.5,3c-.276,0-.5.224-.5.5v8c0,.276.224.5.5.5s.5-.224.5-.5v-8c0-.276-.224-.5-.5-.5Zm-3,0c-.276,0-.5.224-.5.5v5c0,1.379-1.121,2.5-2.5,2.5s-2.5-1.121-2.5-2.5v-5c0-.276-.224-.5-.5-.5s-.5.224-.5.5v5c0,1.93,1.57,3.5,3.5,3.5s3.5-1.57,3.5-3.5v-5c0-.276-.224-.5-.5-.5Zm-5-6c1.93,0,3.5-1.57,3.5-3.5V.5c0-.276-.224-.5-.5-.5s-.5.224-.5.5v5c0,1.379-1.121,2.5-2.5,2.5s-2.5-1.121-2.5-2.5V.5c0-.276-.224-.5-.5-.5s-.5.224-.5.5v5c0,1.93,1.57,3.5,3.5,3.5Zm5.735-.076c.082.052.174.076.265.076.166,0,.329-.083.424-.235l2.076-3.322,2.076,3.322c.095.152.258.235.424.235.091,0,.183-.024.265-.076.234-.146.306-.455.159-.688l-2.335-3.735,2.335-3.735c.146-.233.075-.542-.159-.688-.231-.146-.541-.076-.688.159l-2.076,3.322L14.924.235c-.146-.235-.456-.306-.688-.159-.234.146-.306.455-.159.688l2.335,3.735-2.335,3.735c-.146.233-.075.542.159.688Z" fill="#ffffff"/>
</svg>