{
  "accessors": [
    {
      "bufferView": 2,
      "componentType": 5126,
      "count": 3895,
      "max": [
        0.9778990149497986,
        0.9779009819030762,
        0.4984219968318939
      ],
      "min": [
        -0.9779040217399597,
        -0.9779019951820374,
        -0.41788598895072937
      ],
      "type": "VEC3"
    },
    {
      "bufferView": 2,
      "byteOffset": 46740,
      "componentType": 5126,
      "count": 3895,
      "max": [
        1.0,
        1.0,
        1.0
      ],
      "min": [
        -1.0,
        -1.0,
        -1.0
      ],
      "type": "VEC3"
    },
    {
      "bufferView": 1,
      "componentType": 5126,
      "count": 3895,
      "max": [
        1.0,
        1.0
      ],
      "min": [
        0.0,
        0.0
      ],
      "type": "VEC2"
    },
    {
      "bufferView": 0,
      "componentType": 5125,
      "count": 11418,
      "type": "SCALAR"
    },
    {
      "bufferView": 2,
      "byteOffset": 93480,
      "componentType": 5126,
      "count": 1017,
      "max": [
        0.6781169772148132,
        0.9779009819030762,
        -0.20352399349212646
      ],
      "min": [
        -0.6592100262641907,
        -0.9579020142555237,
        -0.2996169924736023
      ],
      "type": "VEC3"
    },
    {
      "bufferView": 2,
      "byteOffset": 105684,
      "componentType": 5126,
      "count": 1017,
      "max": [
        1.0,
        1.0,
        1.0
      ],
      "min": [
        -1.0,
        -1.0,
        -1.0
      ],
      "type": "VEC3"
    },
    {
      "bufferView": 1,
      "byteOffset": 31160,
      "componentType": 5126,
      "count": 1017,
      "max": [
        0.647487998008728,
        1.180999994277954
      ],
      "min": [
        -2.0,
        -0.8519930243492126
      ],
      "type": "VEC2"
    },
    {
      "bufferView": 0,
      "byteOffset": 45672,
      "componentType": 5125,
      "count": 3888,
      "type": "SCALAR"
    },
    {
      "bufferView": 2,
      "byteOffset": 117888,
      "componentType": 5126,
      "count": 1252,
      "max": [
        0.25317099690437317,
        0.951807975769043,
        0.4984219968318939
      ],
      "min": [
        -0.8319540023803711,
        -0.2516689896583557,
        -0.274616003036499
      ],
      "type": "VEC3"
    },
    {
      "bufferView": 2,
      "byteOffset": 132912,
      "componentType": 5126,
      "count": 1252,
      "max": [
        1.0,
        1.0,
        1.0
      ],
      "min": [
        -1.0,
        -1.0,
        -1.0
      ],
      "type": "VEC3"
    },
    {
      "bufferView": 1,
      "byteOffset": 39296,
      "componentType": 5126,
      "count": 1252,
      "max": [
        3.363318920135498,
        7.730382919311523
      ],
      "min": [
        -2.601224899291992,
        -2.276982069015503
      ],
      "type": "VEC2"
    },
    {
      "bufferView": 0,
      "byteOffset": 61224,
      "componentType": 5125,
      "count": 3504,
      "type": "SCALAR"
    },
    {
      "bufferView": 2,
      "byteOffset": 147936,
      "componentType": 5126,
      "count": 456,
      "max": [
        -0.4566290080547333,
        0.9779009819030762,
        -0.24589799344539642
      ],
      "min": [
        -0.5517460107803345,
        0.8978999853134155,
        -0.25725701451301575
      ],
      "type": "VEC3"
    },
    {
      "bufferView": 2,
      "byteOffset": 153408,
      "componentType": 5126,
      "count": 456,
      "max": [
        1.0,
        1.0,
        1.0
      ],
      "min": [
        -1.0,
        -1.0,
        -1.0
      ],
      "type": "VEC3"
    },
    {
      "bufferView": 1,
      "byteOffset": 49312,
      "componentType": 5126,
      "count": 456,
      "max": [
        0.045191001147031784,
        1.180999994277954
      ],
      "min": [
        -0.0044450000859797,
        -0.02259499952197075
      ],
      "type": "VEC2"
    },
    {
      "bufferView": 0,
      "byteOffset": 75240,
      "componentType": 5125,
      "count": 684,
      "type": "SCALAR"
    },
    {
      "bufferView": 2,
      "byteOffset": 158880,
      "componentType": 5126,
      "count": 276,
      "max": [
        0.28159600496292114,
        0.9779009819030762,
        -0.193121999502182
      ],
      "min": [
        -0.5584930181503296,
        0.8360000252723694,
        -0.30777400732040405
      ],
      "type": "VEC3"
    },
    {
      "bufferView": 2,
      "byteOffset": 162192,
      "componentType": 5126,
      "count": 276,
      "max": [
        1.0,
        1.0,
        1.0
      ],
      "min": [
        -1.0,
        -1.0,
        -1.0
      ],
      "type": "VEC3"
    },
    {
      "bufferView": 1,
      "byteOffset": 52960,
      "componentType": 5126,
      "count": 276,
      "max": [
        1.1465189456939697,
        1.7999999523162842
      ],
      "min": [
        -0.5732589960098267,
        -0.5430570244789124
      ],
      "type": "VEC2"
    },
    {
      "bufferView": 0,
      "byteOffset": 77976,
      "componentType": 5125,
      "count": 420,
      "type": "SCALAR"
    },
    {
      "bufferView": 2,
      "byteOffset": 165504,
      "componentType": 5126,
      "count": 3390,
      "max": [
        0.9578989744186401,
        0.9779009819030762,
        0.47842198610305786
      ],
      "min": [
        -0.9579039812088013,
        -0.9579020142555237,
        -0.5084220170974731
      ],
      "type": "VEC3"
    },
    {
      "bufferView": 2,
      "byteOffset": 206184,
      "componentType": 5126,
      "count": 3390,
      "max": [
        1.0,
        1.0,
        1.0
      ],
      "min": [
        -1.0,
        -1.0,
        -1.0
      ],
      "type": "VEC3"
    },
    {
      "bufferView": 1,
      "byteOffset": 55168,
      "componentType": 5126,
      "count": 3390,
      "max": [
        17.81656265258789,
        22.917917251586914
      ],
      "min": [
        -9.5790376663208,
        -22.917917251586914
      ],
      "type": "VEC2"
    },
    {
      "bufferView": 0,
      "byteOffset": 79656,
      "componentType": 5125,
      "count": 9450,
      "type": "SCALAR"
    },
    {
      "bufferView": 2,
      "byteOffset": 246864,
      "componentType": 5126,
      "count": 146,
      "max": [
        -0.7107899785041809,
        -0.7118930220603943,
        -0.3978919982910156
      ],
      "min": [
        -0.7701280117034912,
        -0.771236002445221,
        -0.4178920090198517
      ],
      "type": "VEC3"
    },
    {
      "bufferView": 2,
      "byteOffset": 248616,
      "componentType": 5126,
      "count": 146,
      "max": [
        1.0,
        1.0,
        1.0
      ],
      "min": [
        -1.0,
        -1.0,
        -1.0
      ],
      "type": "VEC3"
    },
    {
      "bufferView": 1,
      "byteOffset": 82288,
      "componentType": 5126,
      "count": 146,
      "max": [
        0.3991349935531616,
        0.2891170084476471
      ],
      "min": [
        -0.2966969907283783,
        -0.30430999398231506
      ],
      "type": "VEC2"
    },
    {
      "bufferView": 0,
      "byteOffset": 117456,
      "componentType": 5125,
      "count": 396,
      "type": "SCALAR"
    },
    {
      "bufferView": 2,
      "byteOffset": 250368,
      "componentType": 5126,
      "count": 4726,
      "max": [
        0.9578989744186401,
        0.9579010009765625,
        -0.3778879940509796
      ],
      "min": [
        -0.9579039812088013,
        -0.9579020142555237,
        -0.4984219968318939
      ],
      "type": "VEC3"
    },
    {
      "bufferView": 2,
      "byteOffset": 307080,
      "componentType": 5126,
      "count": 4726,
      "max": [
        1.0,
        1.0,
        1.0
      ],
      "min": [
        -1.0,
        -1.0,
        -1.0
      ],
      "type": "VEC3"
    },
    {
      "bufferView": 1,
      "byteOffset": 83456,
      "componentType": 5126,
      "count": 4726,
      "max": [
        1.0,
        1.0
      ],
      "min": [
        0.0,
        0.0
      ],
      "type": "VEC2"
    },
    {
      "bufferView": 0,
      "byteOffset": 119040,
      "componentType": 5125,
      "count": 13614,
      "type": "SCALAR"
    }
  ],
  "asset": {
    "extras": {
      "author": "rtql8d (https://sketchfab.com/rtql8d)",
      "license": "CC-BY-NC-4.0 (http://creativecommons.org/licenses/by-nc/4.0/)",
      "source": "https://sketchfab.com/3d-models/apple-mac-studio-059d22336e744ae480479af6713bc637",
      "title": "Apple Mac Studio"
    },
    "generator": "Sketchfab-12.67.0",
    "version": "2.0"
  },
  "bufferViews": [
    {
      "buffer": 0,
      "byteLength": 173496,
      "name": "floatBufferViews",
      "target": 34963
    },
    {
      "buffer": 0,
      "byteLength": 121264,
      "byteOffset": 173496,
      "byteStride": 8,
      "name": "floatBufferViews",
      "target": 34962
    },
    {
      "buffer": 0,
      "byteLength": 363792,
      "byteOffset": 294760,
      "byteStride": 12,
      "name": "floatBufferViews",
      "target": 34962
    }
  ],
  "buffers": [
    {
      "byteLength": 658552,
      "uri": "scene.bin"
    }
  ],
  "images": [
    {
      "uri": "textures/Aluminum_-_Satin_baseColor.jpeg"
    },
    {
      "uri": "textures/Steel_-_Satin_bottom.jpg_baseColor.jpeg"
    }
  ],
  "materials": [
    {
      "doubleSided": true,
      "name": "Aluminum_-_Satin",
      "pbrMetallicRoughness": {
        "baseColorTexture": {
          "index": 0
        },
        "metallicFactor": 0.6,
        "roughnessFactor": 0.4
      }
    },
    {
      "doubleSided": true,
      "name": "Chrome",
      "pbrMetallicRoughness": {
        "baseColorFactor": [
          0.24620132670783548,
          0.24620132670783548,
          0.24620132670783548,
          1.0
        ],
        "metallicFactor": 0.0,
        "roughnessFactor": 0.19999999999999996
      }
    },
    {
      "doubleSided": true,
      "name": "Glass_-_Heavy_Color",
      "pbrMetallicRoughness": {
        "baseColorFactor": [
          0.0,
          0.0,
          0.0,
          1.0
        ],
        "metallicFactor": 0.0,
        "roughnessFactor": 0.09999999999999998
      }
    },
    {
      "doubleSided": true,
      "name": "Nickel_-_Polished",
      "pbrMetallicRoughness": {
        "baseColorFactor": [
          0.5329208617282817,
          0.2985505892556541,
          0.0,
          1.0
        ],
        "metallicFactor": 0.8,
        "roughnessFactor": 0.4
      }
    },
    {
      "doubleSided": true,
      "name": "Nickel_-_Satin",
      "pbrMetallicRoughness": {
        "baseColorFactor": [
          0.24620132670783548,
          0.24620132670783548,
          0.24620132670783548,
          1.0
        ],
        "metallicFactor": 0.6,
        "roughnessFactor": 0.4
      }
    },
    {
      "doubleSided": true,
      "name": "Plastic_-_Translucent_Matte_Gray",
      "pbrMetallicRoughness": {
        "baseColorFactor": [
          0.01850022012837969,
          0.01850022012837969,
          0.01850022012837969,
          1.0
        ],
        "metallicFactor": 0.0,
        "roughnessFactor": 0.8434915419926713
      }
    },
    {
      "doubleSided": true,
      "name": "Steel_-_Satin",
      "pbrMetallicRoughness": {
        "baseColorFactor": [
          0.0,
          0.0,
          0.0,
          1.0
        ],
        "metallicFactor": 0.0,
        "roughnessFactor": 0.8434915419926713
      }
    },
    {
      "doubleSided": true,
      "name": "Steel_-_Satin_bottom.jpg",
      "pbrMetallicRoughness": {
        "baseColorTexture": {
          "index": 1
        },
        "metallicFactor": 0.5,
        "roughnessFactor": 0.5
      }
    }
  ],
  "meshes": [
    {
      "name": "Object_0",
      "primitives": [
        {
          "attributes": {
            "NORMAL": 1,
            "POSITION": 0,
            "TEXCOORD_0": 2
          },
          "indices": 3,
          "material": 0,
          "mode": 4
        }
      ]
    },
    {
      "name": "Object_1",
      "primitives": [
        {
          "attributes": {
            "NORMAL": 5,
            "POSITION": 4,
            "TEXCOORD_0": 6
          },
          "indices": 7,
          "material": 1,
          "mode": 4
        }
      ]
    },
    {
      "name": "Object_2",
      "primitives": [
        {
          "attributes": {
            "NORMAL": 9,
            "POSITION": 8,
            "TEXCOORD_0": 10
          },
          "indices": 11,
          "material": 2,
          "mode": 4
        }
      ]
    },
    {
      "name": "Object_3",
      "primitives": [
        {
          "attributes": {
            "NORMAL": 13,
            "POSITION": 12,
            "TEXCOORD_0": 14
          },
          "indices": 15,
          "material": 3,
          "mode": 4
        }
      ]
    },
    {
      "name": "Object_4",
      "primitives": [
        {
          "attributes": {
            "NORMAL": 17,
            "POSITION": 16,
            "TEXCOORD_0": 18
          },
          "indices": 19,
          "material": 4,
          "mode": 4
        }
      ]
    },
    {
      "name": "Object_5",
      "primitives": [
        {
          "attributes": {
            "NORMAL": 21,
            "POSITION": 20,
            "TEXCOORD_0": 22
          },
          "indices": 23,
          "material": 5,
          "mode": 4
        }
      ]
    },
    {
      "name": "Object_6",
      "primitives": [
        {
          "attributes": {
            "NORMAL": 25,
            "POSITION": 24,
            "TEXCOORD_0": 26
          },
          "indices": 27,
          "material": 6,
          "mode": 4
        }
      ]
    },
    {
      "name": "Object_7",
      "primitives": [
        {
          "attributes": {
            "NORMAL": 29,
            "POSITION": 28,
            "TEXCOORD_0": 30
          },
          "indices": 31,
          "material": 7,
          "mode": 4
        }
      ]
    }
  ],
  "nodes": [
    {
      "children": [
        1
      ],
      "matrix": [
        1.0,
        0.0,
        0.0,
        0.0,
        0.0,
        2.220446049250313e-16,
        -1.0,
        0.0,
        0.0,
        1.0,
        2.220446049250313e-16,
        0.0,
        0.0,
        0.0,
        0.0,
        1.0
      ],
      "name": "Sketchfab_model"
    },
    {
      "children": [
        2,
        3,
        4,
        5,
        6,
        7,
        8,
        9
      ],
      "name": "Mac_Studio.obj.cleaner.materialmerger.gles"
    },
    {
      "mesh": 0,
      "name": "Object_2"
    },
    {
      "mesh": 1,
      "name": "Object_3"
    },
    {
      "mesh": 2,
      "name": "Object_4"
    },
    {
      "mesh": 3,
      "name": "Object_5"
    },
    {
      "mesh": 4,
      "name": "Object_6"
    },
    {
      "mesh": 5,
      "name": "Object_7"
    },
    {
      "mesh": 6,
      "name": "Object_8"
    },
    {
      "mesh": 7,
      "name": "Object_9"
    }
  ],
  "samplers": [
    {
      "magFilter": 9729,
      "minFilter": 9987,
      "wrapS": 10497,
      "wrapT": 10497
    }
  ],
  "scene": 0,
  "scenes": [
    {
      "name": "Sketchfab_Scene",
      "nodes": [
        0
      ]
    }
  ],
  "textures": [
    {
      "sampler": 0,
      "source": 0
    },
    {
      "sampler": 0,
      "source": 1
    }
  ]
}
